<svg width="800" height="400" viewBox="0 0 800 400" xmlns="http://www.w3.org/2000/svg"><defs><pattern id="satori_pattern_id_0" x="0" y="0" width="1" height="1" patternUnits="objectBoundingBox"><linearGradient id="satori_biid_0" x1="0" y1="0" x2="0" y2="1"><stop offset="0%" stop-color="#dbf4ff"/><stop offset="100%" stop-color="#fff1f1"/></linearGradient><rect x="0" y="0" width="800" height="400" fill="url(#satori_biid_0)"/></pattern></defs><mask id="satori_om-id"><rect x="0" y="0" width="800" height="400" fill="#fff"/></mask><rect x="0" y="0" width="800" height="400" fill="url(#satori_pattern_id_0)"/><clipPath id="satori_bct-id-0"><path d="M308.8 103.5L318.0 103.5L318.0 147.2L308.8 147.2L308.8 103.5ZM332.5 128.2L332.5 128.2L332.5 147.2L323.5 147.2L323.5 114.4L332.1 114.4L332.1 120.2L332.5 120.2Q333.6 117.4 336.1 115.7Q338.7 114.0 342.3 114.0L342.3 114.0Q345.7 114.0 348.3 115.5Q350.8 117.0 352.2 119.7Q353.6 122.5 353.6 126.3L353.6 126.3L353.6 147.2L344.5 147.2L344.5 127.9Q344.6 124.9 343.0 123.2Q341.5 121.5 338.7 121.5L338.7 121.5Q336.9 121.5 335.5 122.3Q334.1 123.1 333.3 124.6Q332.6 126.1 332.5 128.2ZM356.2 114.4L376.4 114.4L376.4 121.3L356.2 121.3L356.2 114.4ZM369.8 147.2L360.8 147.2L360.8 112.1Q360.8 108.5 362.2 106.2Q363.6 103.8 366.0 102.7Q368.4 101.5 371.5 101.5L371.5 101.5Q373.6 101.5 375.4 101.8Q377.1 102.1 377.9 102.4L377.9 102.4L376.3 109.2Q375.8 109.0 375.0 108.9Q374.2 108.7 373.4 108.7L373.4 108.7Q371.4 108.7 370.6 109.6Q369.8 110.6 369.8 112.2L369.8 112.2L369.8 147.2ZM389.0 147.2L379.9 147.2L379.9 114.4L389.0 114.4L389.0 147.2ZM384.5 110.2L384.5 110.2Q382.4 110.2 381.0 108.9Q379.6 107.5 379.6 105.6L379.6 105.6Q379.6 103.7 381.0 102.4Q382.4 101.0 384.5 101.0L384.5 101.0Q386.5 101.0 387.9 102.4Q389.4 103.7 389.4 105.6L389.4 105.6Q389.4 107.5 387.9 108.9Q386.5 110.2 384.5 110.2ZM403.3 128.2L403.3 128.2L403.3 147.2L394.2 147.2L394.2 114.4L402.9 114.4L402.9 120.2L403.3 120.2Q404.3 117.4 406.9 115.7Q409.5 114.0 413.1 114.0L413.1 114.0Q416.5 114.0 419.0 115.5Q421.6 117.0 423.0 119.7Q424.4 122.5 424.4 126.3L424.4 126.3L424.4 147.2L415.3 147.2L415.3 127.9Q415.3 124.9 413.8 123.2Q412.2 121.5 409.5 121.5L409.5 121.5Q407.7 121.5 406.3 122.3Q404.9 123.1 404.1 124.6Q403.3 126.1 403.3 128.2ZM438.6 147.2L429.5 147.2L429.5 114.4L438.6 114.4L438.6 147.2ZM434.1 110.2L434.1 110.2Q432.1 110.2 430.6 108.9Q429.2 107.5 429.2 105.6L429.2 105.6Q429.2 103.7 430.6 102.4Q432.1 101.0 434.1 101.0L434.1 101.0Q436.1 101.0 437.6 102.4Q439.0 103.7 439.0 105.6L439.0 105.6Q439.0 107.5 437.6 108.9Q436.1 110.2 434.1 110.2ZM441.6 114.4L461.3 114.4L461.3 121.3L441.6 121.3L441.6 114.4ZM446.0 138.3L446.0 106.6L455.1 106.6L455.1 137.1Q455.1 138.4 455.5 139.1Q455.9 139.7 456.6 140.0Q457.3 140.3 458.2 140.3L458.2 140.3Q458.8 140.3 459.4 140.2Q460.1 140.1 460.4 140.0L460.4 140.0L461.9 146.8Q461.2 147.0 459.9 147.3Q458.7 147.5 456.9 147.6L456.9 147.6Q453.7 147.7 451.2 146.7Q448.7 145.7 447.4 143.6Q446.0 141.5 446.0 138.3L446.0 138.3ZM479.7 147.8L479.7 147.8Q474.7 147.8 471.1 145.7Q467.4 143.7 465.5 139.9Q463.5 136.1 463.5 130.9L463.5 130.9Q463.5 125.9 465.5 122.1Q467.4 118.3 471.0 116.1Q474.6 114.0 479.4 114.0L479.4 114.0Q482.6 114.0 485.4 115.0Q488.2 116.1 490.3 118.1Q492.4 120.2 493.6 123.3Q494.8 126.5 494.8 130.6L494.8 130.6L494.8 133.1L467.1 133.1L467.1 127.5L486.2 127.5Q486.2 125.5 485.4 124.0Q484.5 122.5 483.0 121.6Q481.5 120.8 479.5 120.8L479.5 120.8Q477.5 120.8 475.9 121.7Q474.3 122.7 473.4 124.3Q472.5 125.9 472.5 127.8L472.5 127.8L472.5 133.1Q472.5 135.6 473.4 137.3Q474.3 139.1 475.9 140.1Q477.6 141.0 479.9 141.0L479.9 141.0Q481.4 141.0 482.7 140.6Q483.9 140.2 484.8 139.3Q485.7 138.5 486.2 137.2L486.2 137.2L494.6 137.8Q493.9 140.8 492.0 143.1Q490.0 145.3 486.9 146.6Q483.8 147.8 479.7 147.8Z "/></clipPath><defs><pattern id="satori_pattern_id-0_0" x="0" y="0" width="1" height="1" patternUnits="objectBoundingBox"><linearGradient id="satori_biid-0_0" x1="0" y1="0" x2="1" y2="0"><stop offset="0%" stop-color="rgb(0,124,240)"/><stop offset="100%" stop-color="rgb(0,223,216)"/></linearGradient><rect x="0" y="0" width="191" height="73" fill="url(#satori_biid-0_0)"/></pattern></defs><mask id="satori_om-id-0"><rect x="305" y="91" width="191" height="73" fill="#fff"/></mask><rect x="305" y="91" width="191" height="73" fill="url(#satori_pattern_id-0_0)" clip-path="url(#satori_bct-id-0)"/><clipPath id="satori_bct-id-1"><path d="M358.3 189.1L349.5 189.1Q349.2 186.5 347.3 185.1Q345.3 183.6 342.0 183.6L342.0 183.6Q339.7 183.6 338.2 184.3Q336.6 184.9 335.8 186.0Q335.0 187.1 335.0 188.5L335.0 188.5Q335.0 189.7 335.5 190.6Q336.0 191.4 337 192.1Q338.0 192.7 339.2 193.2Q340.5 193.6 341.9 193.9L341.9 193.9L345.8 194.9Q348.7 195.5 351.1 196.6Q353.4 197.6 355.2 199.2Q356.9 200.7 357.9 202.9Q358.9 205.0 358.9 207.7L358.9 207.7Q358.9 211.7 356.9 214.6Q354.9 217.6 351.1 219.2Q347.3 220.8 342.0 220.8L342.0 220.8Q336.7 220.8 332.8 219.2Q328.9 217.5 326.7 214.4Q324.5 211.2 324.4 206.5L324.4 206.5L333.3 206.5Q333.5 208.7 334.6 210.1Q335.7 211.6 337.6 212.3Q339.5 213.0 341.9 213.0L341.9 213.0Q344.2 213.0 345.9 212.4Q347.7 211.7 348.6 210.5Q349.6 209.3 349.6 207.7L349.6 207.7Q349.6 206.2 348.7 205.2Q347.9 204.2 346.2 203.5Q344.6 202.8 342.2 202.2L342.2 202.2L337.4 201.0Q331.9 199.7 328.7 196.8Q325.5 194.0 325.5 189.1L325.5 189.1Q325.5 185.2 327.7 182.2Q329.8 179.3 333.5 177.6Q337.3 175.9 342.1 175.9L342.1 175.9Q346.9 175.9 350.6 177.6Q354.2 179.3 356.2 182.2Q358.2 185.2 358.3 189.1L358.3 189.1ZM377.7 220.8L377.7 220.8Q372.7 220.8 369.1 218.7Q365.4 216.5 363.5 212.7Q361.6 208.9 361.6 203.9L361.6 203.9Q361.6 198.9 363.5 195.1Q365.5 191.3 369.1 189.1Q372.7 187.0 377.7 187.0L377.7 187.0Q381.9 187.0 385.2 188.6Q388.4 190.1 390.2 192.9Q392.1 195.7 392.3 199.5L392.3 199.5L383.8 199.5Q383.4 197.1 381.8 195.6Q380.3 194.1 377.8 194.1L377.8 194.1Q375.7 194.1 374.1 195.2Q372.6 196.4 371.7 198.5Q370.8 200.7 370.8 203.8L370.8 203.8Q370.8 206.9 371.7 209.1Q372.5 211.3 374.1 212.5Q375.7 213.6 377.8 213.6L377.8 213.6Q379.4 213.6 380.6 213.0Q381.9 212.3 382.7 211.1Q383.5 209.9 383.8 208.2L383.8 208.2L392.3 208.2Q392.1 211.9 390.3 214.8Q388.5 217.6 385.3 219.2Q382.1 220.8 377.7 220.8ZM405.2 220.2L396.2 220.2L396.2 187.4L405.0 187.4L405.0 193.1L405.3 193.1Q406.2 190.1 408.3 188.5Q410.4 187.0 413.2 187.0L413.2 187.0Q413.8 187.0 414.6 187.0Q415.4 187.1 416.0 187.3L416.0 187.3L416.0 195.3Q415.4 195.1 414.2 195.0Q413.1 194.8 412.2 194.8L412.2 194.8Q410.2 194.8 408.6 195.7Q407.0 196.6 406.1 198.1Q405.2 199.6 405.2 201.6L405.2 201.6L405.2 220.2ZM431.9 220.8L431.9 220.8Q427.0 220.8 423.4 218.7Q419.7 216.6 417.8 212.8Q415.8 209.0 415.8 203.9L415.8 203.9Q415.8 198.9 417.8 195.1Q419.7 191.2 423.4 189.1Q427.0 187.0 431.9 187.0L431.9 187.0Q436.9 187.0 440.5 189.1Q444.1 191.2 446.1 195.1Q448.0 198.9 448.0 203.9L448.0 203.9Q448.0 209.0 446.1 212.8Q444.1 216.6 440.5 218.7Q436.9 220.8 431.9 220.8ZM432.0 213.8L432.0 213.8Q434.2 213.8 435.7 212.5Q437.3 211.2 438.0 209.0Q438.8 206.7 438.8 203.9L438.8 203.9Q438.8 201.0 438.0 198.8Q437.3 196.5 435.7 195.2Q434.2 193.9 432.0 193.9L432.0 193.9Q429.7 193.9 428.1 195.2Q426.6 196.5 425.8 198.8Q425.0 201.0 425.0 203.9L425.0 203.9Q425.0 206.7 425.8 209.0Q426.6 211.2 428.1 212.5Q429.7 213.8 432.0 213.8ZM452.0 176.5L461.0 176.5L461.0 220.2L452.0 220.2L452.0 176.5ZM466.3 176.5L475.4 176.5L475.4 220.2L466.3 220.2L466.3 176.5Z "/></clipPath><defs><pattern id="satori_pattern_id-1_0" x="0" y="0" width="1" height="1" patternUnits="objectBoundingBox"><linearGradient id="satori_biid-1_0" x1="0" y1="0" x2="1" y2="0"><stop offset="0%" stop-color="rgb(121,40,202)"/><stop offset="100%" stop-color="rgb(255,0,128)"/></linearGradient><rect x="0" y="0" width="157" height="72" fill="url(#satori_biid-1_0)"/></pattern></defs><mask id="satori_om-id-1"><rect x="322" y="164" width="157" height="72" fill="#fff"/></mask><rect x="322" y="164" width="157" height="72" fill="url(#satori_pattern_id-1_0)" clip-path="url(#satori_bct-id-1)"/><clipPath id="satori_bct-id-2"><path d="M169.7 292.2L160.8 292.2L160.8 248.5L169.9 248.5L169.9 264.9L170.1 264.9Q170.7 263.6 171.9 262.2Q173.0 260.9 174.9 259.9Q176.7 259.0 179.5 259.0L179.5 259.0Q183.0 259.0 186.1 260.9Q189.1 262.7 190.9 266.5Q192.7 270.2 192.7 275.8L192.7 275.8Q192.7 281.3 191.0 285.1Q189.2 288.8 186.2 290.8Q183.2 292.7 179.4 292.7L179.4 292.7Q176.8 292.7 175.0 291.8Q173.1 290.9 171.9 289.6Q170.8 288.3 170.1 286.9L170.1 286.9L169.7 286.9L169.7 292.2ZM169.7 275.8L169.7 275.8Q169.7 278.7 170.5 280.9Q171.3 283.1 172.8 284.3Q174.4 285.5 176.6 285.5L176.6 285.5Q178.8 285.5 180.3 284.2Q181.8 283.0 182.6 280.8Q183.4 278.7 183.4 275.8L183.4 275.8Q183.4 273.0 182.7 270.8Q181.9 268.7 180.3 267.4Q178.8 266.2 176.6 266.2L176.6 266.2Q174.3 266.2 172.8 267.4Q171.3 268.6 170.5 270.7Q169.7 272.9 169.7 275.8ZM201.3 304.4L201.3 304.4Q199.5 304.4 198.0 304.2Q196.5 303.9 195.5 303.5L195.5 303.5L197.6 296.7Q199.2 297.2 200.5 297.3Q201.8 297.3 202.7 296.7Q203.7 296.0 204.3 294.5L204.3 294.5L204.8 293.1L193.1 259.4L202.6 259.4L209.4 283.5L209.7 283.5L216.6 259.4L226.2 259.4L213.4 295.7Q212.5 298.3 211.0 300.3Q209.4 302.3 207.0 303.4Q204.6 304.4 201.3 304.4Z M242.0 248.5L251.2 248.5L251.2 292.2L242.0 292.2L242.0 248.5ZM270.9 275.9L264.9 282.7L264.9 271.9L266.2 271.9L276.7 259.4L287.1 259.4L273.0 275.9L270.9 275.9ZM265.7 292.2L256.6 292.2L256.6 248.5L265.7 248.5L265.7 292.2ZM287.7 292.2L277.1 292.2L267.5 277.9L273.5 271.5L287.7 292.2ZM298.6 292.2L289.5 292.2L289.5 259.4L298.3 259.4L298.3 265.1L298.7 265.1Q299.6 262.1 301.7 260.5Q303.8 259.0 306.5 259.0L306.5 259.0Q307.2 259.0 308.0 259.0Q308.8 259.1 309.4 259.3L309.4 259.3L309.4 267.3Q308.8 267.1 307.6 267.0Q306.5 266.8 305.6 266.8L305.6 266.8Q303.6 266.8 302.0 267.7Q300.4 268.6 299.5 270.1Q298.6 271.6 298.6 273.6L298.6 273.6L298.6 292.2ZM320.5 292.8L320.5 292.8Q317.4 292.8 314.9 291.7Q312.5 290.6 311.0 288.4Q309.6 286.3 309.6 283.0L309.6 283.0Q309.6 280.3 310.6 278.4Q311.6 276.6 313.3 275.5Q315.1 274.3 317.3 273.8Q319.5 273.2 321.9 272.9L321.9 272.9Q324.8 272.6 326.5 272.4Q328.3 272.1 329.0 271.6Q329.8 271.0 329.8 270.0L329.8 270.0L329.8 269.9Q329.8 267.8 328.6 266.7Q327.3 265.6 325.0 265.6L325.0 265.6Q322.5 265.6 321.1 266.7Q319.6 267.8 319.2 269.4L319.2 269.4L310.8 268.7Q311.4 265.7 313.3 263.6Q315.2 261.4 318.1 260.2Q321.1 259.0 325.0 259.0L325.0 259.0Q327.7 259.0 330.3 259.6Q332.8 260.3 334.7 261.6Q336.7 263.0 337.8 265.1Q338.9 267.2 338.9 270.1L338.9 270.1L338.9 292.2L330.3 292.2L330.3 287.6L330.0 287.6Q329.3 289.2 327.9 290.3Q326.6 291.5 324.8 292.1Q322.9 292.8 320.5 292.8ZM323.1 286.5L323.1 286.5Q325.1 286.5 326.6 285.7Q328.2 284.9 329.0 283.6Q329.9 282.2 329.9 280.5L329.9 280.5L329.9 277.0Q329.5 277.3 328.7 277.5Q328.0 277.7 327.1 277.9Q326.2 278.1 325.3 278.2Q324.3 278.4 323.6 278.5L323.6 278.5Q322.0 278.7 320.8 279.2Q319.6 279.7 318.9 280.6Q318.3 281.4 318.3 282.7L318.3 282.7Q318.3 284.6 319.6 285.5Q321.0 286.5 323.1 286.5ZM353.0 292.2L344.0 292.2L344.0 259.4L352.6 259.4L352.6 265.2L353.0 265.2Q354.0 262.3 356.4 260.7Q358.8 259.0 362.1 259.0L362.1 259.0Q365.5 259.0 367.9 260.7Q370.2 262.4 371.0 265.2L371.0 265.2L371.3 265.2Q372.3 262.4 375.0 260.7Q377.6 259.0 381.2 259.0L381.2 259.0Q385.8 259.0 388.7 261.9Q391.5 264.8 391.5 270.2L391.5 270.2L391.5 292.2L382.5 292.2L382.5 271.9Q382.5 269.2 381.0 267.8Q379.6 266.5 377.4 266.5L377.4 266.5Q374.9 266.5 373.5 268.1Q372.2 269.6 372.2 272.2L372.2 272.2L372.2 292.2L363.4 292.2L363.4 271.7Q363.4 269.3 362.0 267.9Q360.6 266.5 358.4 266.5L358.4 266.5Q356.9 266.5 355.7 267.2Q354.4 268.0 353.7 269.4Q353.0 270.7 353.0 272.5L353.0 272.5L353.0 292.2Z M409.7 292.2L409.7 248.5L421.1 248.5L433.1 277.8L433.6 277.8L445.6 248.5L457.0 248.5L457.0 292.2L448.0 292.2L448.0 263.8L447.7 263.8L436.4 291.9L430.3 291.9L419.0 263.7L418.6 263.7L418.6 292.2L409.7 292.2ZM471.7 292.8L471.7 292.8Q468.6 292.8 466.1 291.7Q463.7 290.6 462.3 288.4Q460.9 286.3 460.9 283.0L460.9 283.0Q460.9 280.3 461.9 278.4Q462.9 276.6 464.6 275.5Q466.3 274.3 468.5 273.8Q470.7 273.2 473.2 272.9L473.2 272.9Q476.0 272.6 477.8 272.4Q479.5 272.1 480.3 271.6Q481.1 271.0 481.1 270.0L481.1 270.0L481.1 269.9Q481.1 267.8 479.8 266.7Q478.5 265.6 476.2 265.6L476.2 265.6Q473.8 265.6 472.3 266.7Q470.9 267.8 470.4 269.4L470.4 269.4L462.0 268.7Q462.7 265.7 464.5 263.6Q466.4 261.4 469.4 260.2Q472.3 259.0 476.3 259.0L476.3 259.0Q479.0 259.0 481.5 259.6Q484.0 260.3 486.0 261.6Q487.9 263.0 489.0 265.1Q490.2 267.2 490.2 270.1L490.2 270.1L490.2 292.2L481.6 292.2L481.6 287.6L481.3 287.6Q480.5 289.2 479.2 290.3Q477.9 291.5 476.0 292.1Q474.2 292.8 471.7 292.8ZM474.3 286.5L474.3 286.5Q476.3 286.5 477.9 285.7Q479.4 284.9 480.3 283.6Q481.1 282.2 481.1 280.5L481.1 280.5L481.1 277.0Q480.7 277.3 480.0 277.5Q479.3 277.7 478.3 277.9Q477.4 278.1 476.5 278.2Q475.6 278.4 474.8 278.5L474.8 278.5Q473.2 278.7 472.0 279.2Q470.9 279.7 470.2 280.6Q469.5 281.4 469.5 282.7L469.5 282.7Q469.5 284.6 470.9 285.5Q472.2 286.5 474.3 286.5ZM516.2 278.2L516.2 278.2L516.2 259.4L525.3 259.4L525.3 292.2L516.6 292.2L516.6 286.2L516.2 286.2Q515.1 289.1 512.5 290.8Q510.0 292.6 506.3 292.6L506.3 292.6Q503.0 292.6 500.5 291.1Q498.0 289.6 496.6 286.9Q495.2 284.1 495.2 280.3L495.2 280.3L495.2 259.4L504.3 259.4L504.3 278.7Q504.3 281.5 505.8 283.2Q507.4 284.9 510.0 284.9L510.0 284.9Q511.6 284.9 513.0 284.2Q514.5 283.4 515.3 281.9Q516.2 280.4 516.2 278.2ZM530.5 248.5L539.6 248.5L539.6 292.2L530.5 292.2L530.5 248.5ZM554.2 292.8L554.2 292.8Q551.0 292.8 548.6 291.7Q546.1 290.6 544.7 288.4Q543.3 286.3 543.3 283.0L543.3 283.0Q543.3 280.3 544.3 278.4Q545.3 276.6 547.0 275.5Q548.8 274.3 551.0 273.8Q553.2 273.2 555.6 272.9L555.6 272.9Q558.5 272.6 560.2 272.4Q562.0 272.1 562.7 271.6Q563.5 271.0 563.5 270.0L563.5 270.0L563.5 269.9Q563.5 267.8 562.3 266.7Q561.0 265.6 558.7 265.6L558.7 265.6Q556.2 265.6 554.8 266.7Q553.3 267.8 552.9 269.4L552.9 269.4L544.5 268.7Q545.1 265.7 547.0 263.6Q548.8 261.4 551.8 260.2Q554.8 259.0 558.7 259.0L558.7 259.0Q561.4 259.0 563.9 259.6Q566.4 260.3 568.4 261.6Q570.3 263.0 571.5 265.1Q572.6 267.2 572.6 270.1L572.6 270.1L572.6 292.2L564.0 292.2L564.0 287.6L563.7 287.6Q563.0 289.2 561.6 290.3Q560.3 291.5 558.5 292.1Q556.6 292.8 554.2 292.8ZM556.8 286.5L556.8 286.5Q558.8 286.5 560.3 285.7Q561.8 284.9 562.7 283.6Q563.6 282.2 563.6 280.5L563.6 280.5L563.6 277.0Q563.2 277.3 562.4 277.5Q561.7 277.7 560.8 277.9Q559.9 278.1 558.9 278.2Q558.0 278.4 557.3 278.5L557.3 278.5Q555.7 278.7 554.5 279.2Q553.3 279.7 552.6 280.6Q552.0 281.4 552.0 282.7L552.0 282.7Q552.0 284.6 553.3 285.5Q554.7 286.5 556.8 286.5ZM586.7 273.2L586.7 273.2L586.7 292.2L577.7 292.2L577.7 259.4L586.3 259.4L586.3 265.2L586.7 265.2Q587.8 262.4 590.3 260.7Q592.9 259.0 596.5 259.0L596.5 259.0Q599.9 259.0 602.5 260.5Q605.0 262.0 606.4 264.7Q607.8 267.5 607.8 271.3L607.8 271.3L607.8 292.2L598.8 292.2L598.8 272.9Q598.8 269.9 597.2 268.2Q595.7 266.5 592.9 266.5L592.9 266.5Q591.1 266.5 589.7 267.3Q588.3 268.1 587.5 269.6Q586.8 271.1 586.7 273.2ZM622.3 292.8L622.3 292.8Q619.2 292.8 616.7 291.7Q614.3 290.6 612.8 288.4Q611.4 286.3 611.4 283.0L611.4 283.0Q611.4 280.3 612.4 278.4Q613.4 276.6 615.2 275.5Q616.9 274.3 619.1 273.8Q621.3 273.2 623.7 272.9L623.7 272.9Q626.6 272.6 628.3 272.4Q630.1 272.1 630.9 271.6Q631.7 271.0 631.7 270.0L631.7 270.0L631.7 269.9Q631.7 267.8 630.4 266.7Q629.1 265.6 626.8 265.6L626.8 265.6Q624.3 265.6 622.9 266.7Q621.4 267.8 621.0 269.4L621.0 269.4L612.6 268.7Q613.2 265.7 615.1 263.6Q617.0 261.4 619.9 260.2Q622.9 259.0 626.8 259.0L626.8 259.0Q629.6 259.0 632.1 259.6Q634.6 260.3 636.5 261.6Q638.5 263.0 639.6 265.1Q640.7 267.2 640.7 270.1L640.7 270.1L640.7 292.2L632.1 292.2L632.1 287.6L631.9 287.6Q631.1 289.2 629.8 290.3Q628.4 291.5 626.6 292.1Q624.7 292.8 622.3 292.8ZM624.9 286.5L624.9 286.5Q626.9 286.5 628.4 285.7Q630.0 284.9 630.8 283.6Q631.7 282.2 631.7 280.5L631.7 280.5L631.7 277.0Q631.3 277.3 630.6 277.5Q629.8 277.7 628.9 277.9Q628.0 278.1 627.1 278.2Q626.2 278.4 625.4 278.5L625.4 278.5Q623.8 278.7 622.6 279.2Q621.4 279.7 620.8 280.6Q620.1 281.4 620.1 282.7L620.1 282.7Q620.1 284.6 621.5 285.5Q622.8 286.5 624.9 286.5Z "/></clipPath><defs><pattern id="satori_pattern_id-2_0" x="0" y="0" width="1" height="1" patternUnits="objectBoundingBox"><linearGradient id="satori_biid-2_0" x1="0" y1="0" x2="1" y2="0"><stop offset="0%" stop-color="rgb(255,77,77)"/><stop offset="100%" stop-color="rgb(249,203,40)"/></linearGradient><rect x="0" y="0" width="486" height="73" fill="url(#satori_biid-2_0)"/></pattern></defs><mask id="satori_om-id-2"><rect x="157" y="236" width="486" height="73" fill="#fff"/></mask><rect x="157" y="236" width="486" height="73" fill="url(#satori_pattern_id-2_0)" clip-path="url(#satori_bct-id-2)"/></svg>